<svg id="Layer_1" data-name="Layer 1" xmlns="http://www.w3.org/2000/svg" viewBox="0 0 200 50"><defs><style>.cls-1{fill:#f15a24;}</style></defs><title>phoenix</title><path class="cls-1" d="M41.6,17.45c-.13.2-.24.42-.36.6-.29.46-.57.93-.88,1.37a4.25,4.25,0,0,1-1.71,1.68,5.86,5.86,0,0,0,1.44-1.68,10.24,10.24,0,0,0,1.69-6.86,9.35,9.35,0,0,0-.65-2.75c-.17,3.24-1.2,6.66-3.81,8.78a6.88,6.88,0,0,1-1.36.85,9.34,9.34,0,0,0,3-3.39,12.12,12.12,0,0,0,1.07-5.91c-.23-2.23-2.14-5.33-3.2-5.59a9.44,9.44,0,0,1,1.43,5.52c-.42,2.58-.88,6.35-4,8.06,2.76-2.06,3.33-6.37,3.3-8.37v0a9.32,9.32,0,0,0-1.32-4.71,7.56,7.56,0,0,0-4.44-2.9,14.61,14.61,0,0,1,2.33,2.89,11.73,11.73,0,0,1,1,8.69,6.05,6.05,0,0,1-3.44,4.61,6.89,6.89,0,0,0,3.06-4.67,14.63,14.63,0,0,0-.32-6.49A9.56,9.56,0,0,0,33,4.76,6.47,6.47,0,0,0,32.29,4,7.55,7.55,0,0,0,29.11,2.2a7.89,7.89,0,0,0-1.28-.39c-.5-.08-1,0-.61.21a4.39,4.39,0,0,1,.56.4,12.82,12.82,0,0,1,4.31,7.21,11.72,11.72,0,0,1,.39,3.8c-.21,1.72-.31,3.84-3.34,5.16a5.75,5.75,0,0,1-.66.23H28.4l-.49,0a6,6,0,0,1-.61-.07l-.14-.09a3.36,3.36,0,0,1-1.73-3.09,2.07,2.07,0,0,1,.61.91,5.2,5.2,0,0,0-1.57-3.41A23.54,23.54,0,0,0,26.84,13a22.9,22.9,0,0,1-3.07-1.39,7.88,7.88,0,0,0,2.65-.83,17,17,0,0,1-3.18-.38,2.3,2.3,0,0,1-1.12-.48A.72.72,0,0,0,22,9.78c.5-.59.92-1.4.14-2,.12,1.21-.51,1.47-1.57,1.41-1.43-.09-3.11-.26-4.42.45-.29.16-.74.42-.81.79a3.7,3.7,0,0,0-2.51,2.08c0,.06,2.49,0,3.73.07a8,8,0,0,1,2.92.43c2.16.93,1.22,3.7.22,5.17l-.19.27h0a1.7,1.7,0,0,1-.43.26,6,6,0,0,1-6.46-2.88,5.65,5.65,0,0,1-.73-1.37,9,9,0,0,1-.43-1.93,14.44,14.44,0,0,1,.1-2.63,13.21,13.21,0,0,1,4.59-7.5c.18-.13.86-.48.86-.69a2,2,0,0,0-1.31.11c-.44.12-.88.23-1.31.39A8.12,8.12,0,0,0,10.4,5.52a10.05,10.05,0,0,0-.2,10.21,7,7,0,0,0,3.49,3.41,6.47,6.47,0,0,1-4.06-3.48,11.88,11.88,0,0,1-.44-9.43s.54-1.23.93-1.88a6.39,6.39,0,0,1,.81-1.12C11.2,2.94,12,2.34,12.24,2A7.36,7.36,0,0,0,7.61,5.26a9.79,9.79,0,0,0-1.23,5.45,11.94,11.94,0,0,0,2.34,7.08,7.66,7.66,0,0,0,2.36,2.28,6.73,6.73,0,0,1-2.69-2.22A13.92,13.92,0,0,1,6,10.27a19.91,19.91,0,0,1,.22-2.78,25.74,25.74,0,0,1,.75-3.07C5.49,6.25,4.22,8,4,10.33a11,11,0,0,0,1.41,6.34.83.83,0,0,0-.08-.12,11.8,11.8,0,0,0,3.15,4A8.45,8.45,0,0,1,5.54,18a13.89,13.89,0,0,1-2.11-5.67c-.08-.4-.23-2.53-.3-2.93a10.74,10.74,0,0,0-.89,5.32,10.59,10.59,0,0,0,1.59,4.46,15.43,15.43,0,0,0,1.73,2A6.75,6.75,0,0,1,3.24,18.9c-.5-.75-.76-1.62-1.24-2.37a9.16,9.16,0,0,0,4.85,8.14,26.35,26.35,0,0,0,3.07,1.14,5.75,5.75,0,0,1-4.13-1.24c.06,1,.93,1.52,1.7,2a8,8,0,0,0,2.58,1.06,16.37,16.37,0,0,0,3.35.37,17,17,0,0,1,3.27.15,4.05,4.05,0,0,1,2.52,1.77,9.72,9.72,0,0,0-1.29,3.31,12.64,12.64,0,0,0,.08,3c.08.71.15,1.42.22,2.13.9-1.07,1-2.66,1.16-4a6.94,6.94,0,0,1,0,1.93,13.61,13.61,0,0,0,.22,2.7c.34,1.87,1.15,3.63,1.39,5.51a8.38,8.38,0,0,1,0,1.66c0,.45-.28,1-.1,1.43a6,6,0,0,0,1.25-4.28c-.15-1.71-.5-3.36-.8-5a10.2,10.2,0,0,1,0-2.76A15.61,15.61,0,0,0,23,42.21c.25-1.5.72-2.93,1-4.41a8.27,8.27,0,0,0-.19-4.44,3.12,3.12,0,0,1,1.07,2.19c.83-1.37.53-2.44.12-3.91s-.26-2.79,1.32-3.35A13.76,13.76,0,0,1,30.8,28a13.55,13.55,0,0,0,4.72-.73,5.55,5.55,0,0,0,3-2.75c-1.6.95-3.08,1.64-5,1.26A12.08,12.08,0,0,0,38.4,23.9a9.35,9.35,0,0,0,3.14-4.32A10.67,10.67,0,0,0,42,16.94,2.1,2.1,0,0,0,41.6,17.45Z"/><path class="cls-1" d="M69.31,21.59A7.42,7.42,0,0,1,69,23.84a6.6,6.6,0,0,1-.84,1.75,6,6,0,0,1-1.23,1.29,7,7,0,0,1-1.45.88,7.17,7.17,0,0,1-1.53.49,6.84,6.84,0,0,1-1.45.16H54.18V24.73H62.5a4.45,4.45,0,0,0,1.28-.29,3.23,3.23,0,0,0,1-.63,2.76,2.76,0,0,0,.63-1,3.15,3.15,0,0,0,.23-1.26V19.92a5,5,0,0,0-.3-1.28,3.11,3.11,0,0,0-.61-1,2.71,2.71,0,0,0-.94-.64,3.21,3.21,0,0,0-1.28-.24H54.21a1.35,1.35,0,0,0-1.5,1.49V33.39H49V18.26a5.14,5.14,0,0,1,.52-2.41,4.75,4.75,0,0,1,1.28-1.59,5.24,5.24,0,0,1,1.68-.89,5.91,5.91,0,0,1,1.67-.27H62.5a7.4,7.4,0,0,1,2.24.31,6.94,6.94,0,0,1,1.75.85,6,6,0,0,1,1.29,1.23,7.43,7.43,0,0,1,.87,1.45,7.24,7.24,0,0,1,.51,1.53,7.52,7.52,0,0,1,.15,1.45Z"/><path class="cls-1" d="M76.16,21.39H89.08V13.1h3.68V33.39H89.08V25.1H76.16v8.29H72.48V13.1h3.68Z"/><path class="cls-1" d="M118.37,25.18a9,9,0,0,1-.64,3.41A8.18,8.18,0,0,1,116,31.28,7.91,7.91,0,0,1,113.28,33a8.92,8.92,0,0,1-3.38.63h-5a8.92,8.92,0,0,1-3.38-.63,7.85,7.85,0,0,1-2.69-1.76,8,8,0,0,1-1.78-2.69,8.81,8.81,0,0,1-.64-3.41V21.3a8.83,8.83,0,0,1,.64-3.4,8,8,0,0,1,4.47-4.45,8.73,8.73,0,0,1,3.38-.64h5a8.73,8.73,0,0,1,3.38.64A8.06,8.06,0,0,1,116,15.21a8.18,8.18,0,0,1,1.77,2.69,9,9,0,0,1,.64,3.4Zm-3.68-3.88a5.4,5.4,0,0,0-.35-2,4.25,4.25,0,0,0-2.49-2.49,5.33,5.33,0,0,0-1.95-.35h-5a5.34,5.34,0,0,0-2,.35,4.5,4.5,0,0,0-1.52,1,4.33,4.33,0,0,0-1,1.52,5.19,5.19,0,0,0-.35,2v3.88a5.21,5.21,0,0,0,.35,2,4.2,4.2,0,0,0,1,1.51,4.38,4.38,0,0,0,1.52,1,5.34,5.34,0,0,0,2,.34h5a5.34,5.34,0,0,0,2-.34,4.51,4.51,0,0,0,1.53-1,4.33,4.33,0,0,0,1-1.51,5.41,5.41,0,0,0,.35-2Z"/><path class="cls-1" d="M140.35,33.39H127.07a5.86,5.86,0,0,1-1.67-.27,5,5,0,0,1-1.68-.88,5.16,5.16,0,0,1-1.29-1.6,5.22,5.22,0,0,1-.51-2.42V15a1.89,1.89,0,0,1,.14-.72,1.73,1.73,0,0,1,.39-.6,1.6,1.6,0,0,1,.59-.39,1.76,1.76,0,0,1,.73-.14h16.58v3.67H125.6V28.22a1.52,1.52,0,0,0,.38,1.11,1.55,1.55,0,0,0,1.12.38h13.25Zm-1.66-8.29H127.07V21.39h11.62Z"/><path class="cls-1" d="M164.18,31.82a1.85,1.85,0,0,1-.15.74,1.82,1.82,0,0,1-.4.58,1.65,1.65,0,0,1-.58.39,1.78,1.78,0,0,1-.72.14,2.09,2.09,0,0,1-.69-.12,1.68,1.68,0,0,1-.62-.41l-13.44-14V33.39H143.9V14.67a1.72,1.72,0,0,1,.32-1A1.93,1.93,0,0,1,145,13a1.9,1.9,0,0,1,1.08-.1,1.75,1.75,0,0,1,.94.51l13.45,14V13.1h3.68Z"/><path class="cls-1" d="M172.16,33.39h-3.68V13.1h3.68Z"/><path class="cls-1" d="M185.73,20.34l6.2-7.24h5l-8.73,10.17,8.67,10.12h-5l-6.18-7.19-6.14,7.19h-5l8.66-10.12L174.55,13.1h5Z"/></svg>