<svg id="Layer_1" data-name="Layer 1" xmlns="http://www.w3.org/2000/svg" viewBox="0 0 48 49.75"><defs><style>.cls-1{fill:#f15a24;}</style></defs><title>phoenix</title><path class="cls-1" d="M43.6,17.45c-.13.2-.24.42-.36.6-.29.46-.57.93-.88,1.37a4.25,4.25,0,0,1-1.71,1.68,5.86,5.86,0,0,0,1.44-1.68,10.24,10.24,0,0,0,1.69-6.86,9.35,9.35,0,0,0-.65-2.75c-.17,3.24-1.2,6.66-3.81,8.78a6.88,6.88,0,0,1-1.36.85,9.34,9.34,0,0,0,3-3.39,12.12,12.12,0,0,0,1.07-5.91c-.23-2.23-2.14-5.33-3.2-5.59a9.44,9.44,0,0,1,1.43,5.52c-.42,2.58-.88,6.35-4,8.06,2.76-2.06,3.33-6.37,3.3-8.37v0a9.32,9.32,0,0,0-1.32-4.71,7.56,7.56,0,0,0-4.44-2.9,14.61,14.61,0,0,1,2.33,2.89,11.73,11.73,0,0,1,1,8.69,6.05,6.05,0,0,1-3.44,4.61,6.89,6.89,0,0,0,3.06-4.67,14.63,14.63,0,0,0-.32-6.49A9.56,9.56,0,0,0,35,4.76,6.47,6.47,0,0,0,34.29,4,7.55,7.55,0,0,0,31.11,2.2a7.89,7.89,0,0,0-1.28-.39c-.5-.08-1,0-.61.21a4.39,4.39,0,0,1,.56.4,12.82,12.82,0,0,1,4.31,7.21,11.72,11.72,0,0,1,.39,3.8c-.21,1.72-.31,3.84-3.34,5.16a5.75,5.75,0,0,1-.66.23H30.4l-.49,0a6,6,0,0,1-.61-.07l-.14-.09a3.36,3.36,0,0,1-1.73-3.09,2.07,2.07,0,0,1,.61.91,5.2,5.2,0,0,0-1.57-3.41A23.54,23.54,0,0,0,28.84,13a22.9,22.9,0,0,1-3.07-1.39,7.88,7.88,0,0,0,2.65-.83,17,17,0,0,1-3.18-.38,2.3,2.3,0,0,1-1.12-.48A.72.72,0,0,0,24,9.78c.5-.59.92-1.4.14-2,.12,1.21-.51,1.47-1.57,1.41-1.43-.09-3.11-.26-4.42.45-.29.16-.74.42-.81.79a3.7,3.7,0,0,0-2.51,2.08c0,.06,2.49,0,3.73.07a8,8,0,0,1,2.92.43c2.16.93,1.22,3.7.22,5.17l-.19.27h0a1.7,1.7,0,0,1-.43.26,6,6,0,0,1-6.46-2.88,5.65,5.65,0,0,1-.73-1.37,9,9,0,0,1-.43-1.93,14.44,14.44,0,0,1,.1-2.63,13.21,13.21,0,0,1,4.59-7.5c.18-.13.86-.48.86-.69a2,2,0,0,0-1.31.11c-.44.12-.88.23-1.31.39A8.12,8.12,0,0,0,12.4,5.52a10.05,10.05,0,0,0-.2,10.21,7,7,0,0,0,3.49,3.41,6.47,6.47,0,0,1-4.06-3.48,11.88,11.88,0,0,1-.44-9.43s.54-1.23.93-1.88a6.39,6.39,0,0,1,.81-1.12C13.2,2.94,14,2.34,14.24,2A7.36,7.36,0,0,0,9.61,5.26a9.79,9.79,0,0,0-1.23,5.45,11.94,11.94,0,0,0,2.34,7.08,7.66,7.66,0,0,0,2.36,2.28,6.73,6.73,0,0,1-2.69-2.22A13.92,13.92,0,0,1,8,10.27a19.91,19.91,0,0,1,.22-2.78,25.74,25.74,0,0,1,.75-3.07C7.49,6.25,6.22,8,6,10.33a11,11,0,0,0,1.41,6.34.83.83,0,0,0-.08-.12,11.8,11.8,0,0,0,3.15,4A8.45,8.45,0,0,1,7.54,18a13.89,13.89,0,0,1-2.11-5.67c-.08-.4-.23-2.53-.3-2.93a10.74,10.74,0,0,0-.89,5.32,10.59,10.59,0,0,0,1.59,4.46,15.43,15.43,0,0,0,1.73,2A6.75,6.75,0,0,1,5.24,18.9c-.5-.75-.76-1.62-1.24-2.37a9.16,9.16,0,0,0,4.85,8.14,26.35,26.35,0,0,0,3.07,1.14,5.75,5.75,0,0,1-4.13-1.24c.06,1,.93,1.52,1.7,2a8,8,0,0,0,2.58,1.06,16.37,16.37,0,0,0,3.35.37,17,17,0,0,1,3.27.15,4.05,4.05,0,0,1,2.52,1.77,9.72,9.72,0,0,0-1.29,3.31,12.64,12.64,0,0,0,.08,3c.08.71.15,1.42.22,2.13.9-1.07,1-2.66,1.16-4a6.94,6.94,0,0,1,0,1.93,13.61,13.61,0,0,0,.22,2.7c.34,1.87,1.15,3.63,1.39,5.51a8.38,8.38,0,0,1,0,1.66c0,.45-.28,1-.1,1.43a6,6,0,0,0,1.25-4.28c-.15-1.71-.5-3.36-.8-5a10.2,10.2,0,0,1,0-2.76A15.61,15.61,0,0,0,25,42.21c.25-1.5.72-2.93,1-4.41a8.27,8.27,0,0,0-.19-4.44,3.12,3.12,0,0,1,1.07,2.19c.83-1.37.53-2.44.12-3.91s-.26-2.79,1.32-3.35A13.76,13.76,0,0,1,32.8,28a13.55,13.55,0,0,0,4.72-.73,5.55,5.55,0,0,0,3-2.75c-1.6.95-3.08,1.64-5,1.26A12.08,12.08,0,0,0,40.4,23.9a9.35,9.35,0,0,0,3.14-4.32A10.67,10.67,0,0,0,44,16.94,2.1,2.1,0,0,0,43.6,17.45Z"/></svg>